<?xml version="1.0" encoding="iso-8859-1"?>
<!-- Generator: Adobe Illustrator 19.0.0, SVG Export Plug-In . SVG Version: 6.00 Build 0)  -->
<svg version="1.1" id="Capa_1" xmlns="http://www.w3.org/2000/svg" xmlns:xlink="http://www.w3.org/1999/xlink" x="0px" y="0px"
	 viewBox="0 0 512 512" style="enable-background:new 0 0 512 512;" xml:space="preserve">
<g transform="matrix(1.25 0 0 -1.25 0 45)">
	<g>
		<g>
			<path style="fill:#99AAB5;" d="M102.4-89.156C102.4-42.029,79.644,36,91.022,36s79.644-45.511,56.889-125.156
				c-12.948-45.318-10.183-45.511-22.756-45.511C112.594-134.667,102.4-136.282,102.4-89.156"/>
			<path style="fill:#F4ABBA;" d="M108.658-97.166c0,38.844-14.757,103.14-7.373,103.14c7.373,0,51.632-37.513,36.875-103.14
				c-8.397-37.342-6.599-37.501-14.757-37.501C115.257-134.667,108.658-136.009,108.658-97.166"/>
			<path style="fill:#99AAB5;" d="M54.488-104.8C42.405-59.255,0.387,10.332,11.378,13.244
				c11.002,2.924,88.656-23.552,87.097-106.371c-0.876-47.115,1.832-46.603-10.32-49.823C76.015-146.17,66.571-150.345,54.488-104.8
				"/>
			<path style="fill:#F4ABBA;" d="M62.578-110.887c-9.967,37.535-40.721,95.903-33.599,97.792
				c7.134,1.9,59.529-23.006,62.111-90.226c1.468-38.241,3.243-37.945-4.631-40.038C78.575-145.441,72.545-148.422,62.578-110.887"
				/>
			<path style="fill:#CCD6DD;" d="M409.6-288.267c0-21.993-17.829-39.822-39.822-39.822c-21.993,0-39.822,17.829-39.822,39.822
				c0,21.993,17.829,39.822,39.822,39.822C391.771-248.444,409.6-266.273,409.6-288.267"/>
			<path style="fill:#99AAB5;" d="M349.673-325.085c16.987,15.735,25.793,40.038,25.793,76.641
				c0,81.692-77.608,125.156-159.289,125.156c-23.404,0-43.566-1.786-60.575-6.133c-12.345,12.857-32.529,17.51-60.029,17.51
				C47.047-111.911,0-158.196,0-206.722c0-46.99,44.146-52.747,90.999-53.066c0.011-0.011,0.011-0.023,0.023-0.034
				C125.156-316.711,102.4-373.6,125.156-373.6c18.068,0,21.777,25.225,22.539,49.778c12.151-7.543,25.691-13.551,40.175-17.943
				c-9.99-5.951-17.203-12.151-17.203-14.768c0-15.713,22.756-17.067,56.889-17.067c62.828,0,147.911,0,125.156,45.511
				C352.097-326.86,350.982-325.916,349.673-325.085"/>
			<path style="fill:#292F33;" d="M79.644-168.8c0-6.292-5.097-11.378-11.378-11.378s-11.378,5.086-11.378,11.378
				c0,6.281,5.097,11.378,11.378,11.378S79.644-162.519,79.644-168.8"/>
			<path style="fill:#F4ABBA;" d="M22.756-202.933c0-12.561-5.689-22.756-11.378-22.756S0-215.494,0-202.933
				c0,12.572,5.097,11.378,11.378,11.378S22.756-190.361,22.756-202.933"/>
		</g>
	</g>
</g>
<g>
</g>
<g>
</g>
<g>
</g>
<g>
</g>
<g>
</g>
<g>
</g>
<g>
</g>
<g>
</g>
<g>
</g>
<g>
</g>
<g>
</g>
<g>
</g>
<g>
</g>
<g>
</g>
<g>
</g>
</svg>
